<svg width="66" height="65" viewBox="0 0 66 65" fill="none" xmlns="http://www.w3.org/2000/svg">
<path fill-rule="evenodd" clip-rule="evenodd" d="M30.7241 4.19922V10.2606H34.765V4.19922H30.7241ZM42.0637 43.1247C45.0207 40.5325 46.8878 36.7271 46.8878 32.4857C46.8878 24.6746 40.5556 18.3424 32.7446 18.3424C24.9335 18.3424 18.6013 24.6746 18.6013 32.4857C18.6013 32.7722 18.6099 33.0567 18.6267 33.339C17.2432 33.8252 15.9515 34.5065 14.7847 35.3499C14.6371 34.4169 14.5604 33.4602 14.5604 32.4857C14.5604 22.4428 22.7017 14.3015 32.7446 14.3015C42.7874 14.3015 50.9287 22.4428 50.9287 32.4857C50.9287 37.4732 48.9207 41.9918 45.669 45.2771C44.6423 44.3261 43.4176 43.5857 42.0637 43.1247ZM54.9696 30.4652H61.031V34.5061H54.9696V30.4652ZM56.2311 16.5927L50.9817 19.6234L53.0022 23.1229L58.2515 20.0922L56.2311 16.5927ZM42.1074 12.2281L45.1381 6.97883L48.6377 8.99929L45.607 14.2486L42.1074 12.2281ZM16.8516 8.99929L19.8823 14.2486L23.3818 12.2281L20.3511 6.97883L16.8516 8.99929ZM12.4869 23.1229L7.23762 20.0922L9.25808 16.5927L14.5074 19.6234L12.4869 23.1229ZM10.5195 30.4652H4.45813V34.5061H10.5195V30.4652ZM56.2312 48.3786L50.9819 45.348L53.0023 41.8484L58.2516 44.8791L56.2312 48.3786Z" fill="url(#paint0_linear_208_843)"/>
<path fill-rule="evenodd" clip-rule="evenodd" d="M23.6525 56.7304C23.7087 56.7304 23.7648 56.73 23.8208 56.7291H38.6709C38.6968 56.7297 38.7227 56.7301 38.7486 56.7303H38.8059V56.7306C38.8059 56.7306 38.8059 56.7306 38.8059 56.7306C42.1536 56.7306 44.8673 54.0168 44.8673 50.6692C44.8673 47.3216 42.1536 44.6078 38.8059 44.6078C37.2514 44.6078 35.8336 45.193 34.7607 46.1551C34.7692 45.9772 34.7734 45.7983 34.7734 45.6183C34.7734 44.2539 34.5276 42.947 34.0777 41.7394C35.4884 40.9909 37.0977 40.5669 38.8059 40.5669C44.3853 40.5669 48.9083 45.0899 48.9083 50.6692C48.9083 56.2486 44.3853 60.7715 38.8059 60.7715C38.7812 60.7715 38.7565 60.7714 38.7319 60.7712L23.7308 60.7713V60.7711C23.7047 60.7712 23.6786 60.7713 23.6525 60.7713C15.2835 60.7713 8.49902 53.9869 8.49902 45.6178C8.49902 37.2488 15.2835 30.4644 23.6525 30.4644C30.2636 30.4644 35.8859 34.698 37.9561 40.602C36.5613 40.7182 35.2469 41.1177 34.0708 41.743C32.4981 37.5163 28.4269 34.5053 23.6525 34.5053C17.5152 34.5053 12.5399 39.4805 12.5399 45.6178C12.5399 51.7551 17.5152 56.7304 23.6525 56.7304Z" fill="url(#paint1_linear_208_843)"/>
<defs>
<linearGradient id="paint0_linear_208_843" x1="32.7446" y1="4.19922" x2="32.7446" y2="48.3786" gradientUnits="userSpaceOnUse">
<stop stop-color="#EFC977"/>
<stop offset="1" stop-color="#E07256"/>
</linearGradient>
<linearGradient id="paint1_linear_208_843" x1="28.7036" y1="30.4644" x2="28.7036" y2="60.7715" gradientUnits="userSpaceOnUse">
<stop stop-color="#B2D4F7"/>
<stop offset="1" stop-color="#D9E2F3"/>
</linearGradient>
</defs>
</svg>
