<svg width="66" height="65" viewBox="0 0 66 65" fill="none" xmlns="http://www.w3.org/2000/svg">
<path fill-rule="evenodd" clip-rule="evenodd" d="M35.1782 33.312L38.5405 35.5535L32.5527 44.5351H42.8313L31.7624 59.8612L28.4865 57.4953L34.9282 48.576H25.0022L35.1782 33.312Z" fill="url(#paint0_linear_208_1187)"/>
<path fill-rule="evenodd" clip-rule="evenodd" d="M20.6957 47.8988C11.4063 45.4636 4.53198 36.7395 4.53198 26.3505C4.53198 14.076 14.1281 4.12549 25.9656 4.12549C35.7864 4.12549 44.0645 10.9744 46.6 20.3172C46.8862 20.2986 47.1747 20.2892 47.4653 20.2892C54.9982 20.2892 61.1049 26.6213 61.1049 34.4324C61.1049 42.2434 54.9982 48.5755 47.4653 48.5755C47.2967 48.5755 47.1288 48.5724 46.9616 48.5661V44.5347H47.5737V44.534C52.6915 44.4731 57.0639 40.111 57.0639 34.4324C57.0639 28.7137 52.6296 24.3301 47.4653 24.3301C46.0063 24.3301 44.6056 24.68 43.3467 25.311C43.2825 24.1355 43.1101 22.99 42.8396 21.8852L42.8335 21.8876C40.9187 13.9248 33.9981 8.16641 25.9656 8.16641C16.4967 8.16641 8.5729 16.1684 8.5729 26.3505C8.5729 34.5652 13.7303 41.3608 20.6957 43.6803V47.8988Z" fill="url(#paint1_linear_208_1187)"/>
<defs>
<linearGradient id="paint0_linear_208_1187" x1="33.9167" y1="33.312" x2="33.9167" y2="59.8612" gradientUnits="userSpaceOnUse">
<stop stop-color="#F5BD52"/>
<stop offset="1" stop-color="#F5DA79"/>
</linearGradient>
<linearGradient id="paint1_linear_208_1187" x1="32.8184" y1="4.12549" x2="32.8184" y2="48.5755" gradientUnits="userSpaceOnUse">
<stop stop-color="#95B6F6"/>
<stop offset="1" stop-color="#5193DE"/>
</linearGradient>
</defs>
</svg>
